Coordinates
version=1
nRows=9
nColumns=36
inDegrees=yes

Units are S.I. units (second, meters, Newtons, ...)
If the header above contains a line with 'inDegrees', this indicates whether rotational values are in degrees (yes) or radians (no).

endheader
time	pelvis_tilt	pelvis_list	pelvis_rotation	pelvis_tx	pelvis_ty	pelvis_tz	hip_flexion_r	hip_adduction_r	hip_rotation_r	knee_angle_r	knee_angle_r_beta	ankle_angle_r	subtalar_angle_r	mtp_angle_r	hip_flexion_l	hip_adduction_l	hip_rotation_l	knee_angle_l	knee_angle_l_beta	ankle_angle_l	subtalar_angle_l	mtp_angle_l	lumbar_extension	lumbar_bending	lumbar_rotation	arm_flex_r	arm_add_r	arm_rot_r	elbow_flex_r	pro_sup_r	arm_flex_l	arm_add_l	arm_rot_l	elbow_flex_l	pro_sup_l
      1.15000000	     -9.34904575	      0.29556878	     -0.27427306	     -0.42500906	      1.18500778	     -0.57957105	     27.72567739	     -3.93052316	     -6.06415149	      6.77885462	      0.11831333	    -25.54776129	     -2.71176412	     -6.65860358	     28.46720747	     -6.46119601	    -12.11118703	      3.10214398	      0.05414263	    -28.19464808	      6.69577696	     -6.65860358	    -20.60016663	     -3.59116982	      1.14486175	    -42.34259379	    -29.17556062	    -53.08657664	    140.58060632	    100.61144377	    -12.33219782	    -44.64218183	    -23.09875807	    141.32391406	    111.76770209
      1.16000000	     -8.98755173	      0.29013461	     -0.10472465	     -0.41326295	      1.16192475	     -0.57938857	     27.63280325	     -3.97759113	     -6.01326928	      7.30650936	      0.12752265	    -25.34265335	     -2.54223968	     -6.67336077	     28.72952804	     -6.56987503	    -10.94016989	      4.28473902	      0.07478280	    -28.38173883	      6.69889490	     -6.67336077	    -20.63848051	     -3.41950194	      1.80285035	    -45.95246621	    -27.84029244	    -57.06696097	    142.76385765	    100.33851580	    -13.34413363	    -47.29615682	    -26.04817797	    142.59963731	    111.32376446
      1.17000000	     -8.56157926	      0.22511643	      0.10652925	     -0.40160446	      1.13795036	     -0.57931681	     27.54730684	     -4.00655359	     -6.05151343	      8.08062878	      0.14103358	    -25.49214035	     -1.80169760	     -6.69206401	     29.06544518	     -6.69155318	     -9.59491257	      5.93032673	      0.10350373	    -28.81144650	      6.13245543	     -6.69206401	    -20.71574152	     -3.14783822	      2.54055365	    -49.43813902	    -26.20043830	    -60.97553907	    144.83163918	     99.96925345	    -14.06194358	    -50.00170456	    -28.94856296	    143.61526032	    110.72448106
      1.18000000	     -8.07675883	      0.13537837	      0.33412639	     -0.38998307	      1.11311360	     -0.57932734	     27.48777415	     -4.03912029	     -6.21642771	      9.14266755	      0.15956965	    -25.71552629	     -0.59922631	     -6.75047879	     29.45470249	     -6.80102404	     -8.05269968	      8.01994500	      0.13997445	    -29.55712989	      5.00039727	     -6.75047879	    -20.79971561	     -2.83103567	      3.35396745	    -52.64616553	    -24.22137926	    -64.69964790	    146.74943823	     98.81566293	    -14.39790228	    -52.64716231	    -31.31026057	    144.47497628	    109.04366768
      1.19000000	     -7.68991659	      0.11227445	      0.63616867	     -0.37828478	      1.08731691	     -0.57930954	     27.61307797	     -4.14532097	     -6.30772818	     10.59354705	      0.18489228	    -25.45068130	      0.40074419	     -6.96611532	     30.05841181	     -6.74196459	     -6.09639857	     10.59972868	      0.18500017	    -30.49013836	      2.96359601	     -6.96611532	    -20.78118113	     -2.68626400	      3.24163785	    -54.51239951	    -22.93712036	    -66.84960649	    147.98235858	     99.83951641	    -17.15978104	    -54.95499188	    -36.26014037	    145.61111909	    109.04405136
      1.20000000	     -7.27027523	      0.09822749	      0.87821269	     -0.36656494	      1.06061974	     -0.57929149	     27.77619804	     -4.20200641	     -6.14650988	     12.28271720	      0.21437386	    -25.45356769	      0.84974327	     -7.01651259	     30.82523046	     -6.74333482	     -4.90502271	     13.83091069	      0.24139493	    -30.74885205	      2.31763267	     -7.01651259	    -20.64015719	     -2.52067500	      3.84600918	    -56.66886688	    -20.84647466	    -69.52379141	    148.98227771	     98.96477209	    -17.70321551	    -57.39596879	    -38.39263653	    146.21297888	    106.87006914
      1.21000000	     -6.88300855	      0.10778854	      1.08046281	     -0.35457306	      1.03298759	     -0.57934939	     28.06010277	     -4.24483258	     -5.75002243	     13.97863672	      0.24397324	    -26.60278533	      0.69702285	     -7.13624598	     31.62632322	     -6.63784155	     -3.66372955	     17.03487410	      0.29731464	    -31.89588810	      2.22837027	     -7.13624598	    -20.69273644	     -2.56926834	      2.69128068	    -56.77507666	    -20.80573644	    -69.99583243	    149.18076018	    106.56939845	    -24.45205574	    -58.49710758	    -47.73220709	    147.56580421	    108.80442578
      1.22000000	     -6.48167208	      0.06211461	      1.23311583	     -0.34270500	      1.00461170	     -0.57957873	     28.37872772	     -4.17765727	     -4.88190003	     15.96725974	      0.27868126	    -26.33186078	     -0.33381837	     -7.20304426	     32.34962076	     -6.49074611	     -2.39951964	     20.00299467	      0.34911812	    -33.54651091	      2.07483721	     -7.20304426	    -20.56257229	     -2.54273516	      2.47731404	    -57.23547943	    -19.93866885	    -70.70803037	    149.43229886	    108.62514827	    -27.81530549	    -59.78554486	    -52.91243125	    148.22554527	    109.21833616
      1.23000000	     -6.39211675	      0.13715748	      1.46719067	     -0.33114287	      0.97533312	     -0.57986358	     28.87178471	     -4.17010355	     -3.45620647	     19.16045512	      0.33441303	    -18.03403011	     -1.90091842	     -7.29714125	     33.47762338	     -6.13025933	     -1.35334663	     24.03603597	      0.41950797	    -29.96980412	      0.74267275	     -7.29714125	    -20.03984271	     -2.70281027	      2.07095335	    -57.02014722	    -19.23313992	    -70.46098092	    149.56352474	    110.29150326	    -30.55305707	    -60.75788331	    -57.37597975	    148.68871353	    110.44020620
